<svg xmlns="http://www.w3.org/2000/svg" xmlns:xlink="http://www.w3.org/1999/xlink" width="1080" zoomAndPan="magnify" viewBox="0 0 810 809.999993" height="1080" preserveAspectRatio="xMidYMid meet" version="1.0"><defs><clipPath id="b5022a733f"><path d="M 72 40.273438 L 755.769531 40.273438 L 755.769531 738.523438 L 72 738.523438 Z M 72 40.273438 " clip-rule="nonzero"/></clipPath></defs><g clip-path="url(#b5022a733f)"><path fill="#ffffff" d="M 511.859375 40.273438 L 504.875 166.160156 C 499.671875 257.859375 550.503906 329.648438 636.113281 351.792969 L 755.011719 381.519531 L 619.167969 411.242188 C 612.78125 412.878906 606.441406 414.6875 600.152344 416.660156 C 593.863281 418.636719 587.628906 420.78125 581.453125 423.089844 C 575.277344 425.398438 569.167969 427.871094 563.125 430.507812 C 557.082031 433.140625 551.113281 435.9375 545.21875 438.894531 C 539.324219 441.847656 533.515625 444.957031 527.789062 448.226562 C 522.058594 451.492188 516.425781 454.90625 510.878906 458.476562 C 505.335938 462.042969 499.890625 465.753906 494.542969 469.613281 C 489.195312 473.472656 483.957031 477.472656 478.824219 481.609375 C 473.695312 485.75 468.675781 490.023438 463.773438 494.429688 C 458.867188 498.835938 454.085938 503.371094 449.425781 508.035156 C 444.765625 512.699219 440.230469 517.484375 435.824219 522.390625 C 431.421875 527.296875 427.148438 532.316406 423.011719 537.449219 C 418.875 542.582031 414.878906 547.824219 411.023438 553.171875 C 407.167969 558.519531 403.457031 563.96875 399.890625 569.511719 C 396.328125 575.058594 392.914062 580.699219 389.648438 586.425781 C 386.386719 592.15625 383.277344 597.96875 380.328125 603.863281 L 311.660156 738.816406 L 320.726562 603.269531 C 326.96875 507.253906 276.140625 433.089844 191.125 411.390625 L 72.523438 382.113281 L 209.257812 352.386719 C 215.550781 350.851562 221.800781 349.152344 228.007812 347.289062 C 234.210938 345.425781 240.359375 343.394531 246.457031 341.207031 C 252.554688 339.015625 258.589844 336.664062 264.5625 334.152344 C 270.535156 331.640625 276.4375 328.976562 282.265625 326.152344 C 288.097656 323.328125 293.851562 320.351562 299.523438 317.226562 C 305.195312 314.097656 310.785156 310.820312 316.285156 307.394531 C 321.785156 303.972656 327.1875 300.40625 332.5 296.695312 C 337.808594 292.984375 343.019531 289.136719 348.125 285.148438 C 353.234375 281.164062 358.230469 277.042969 363.117188 272.792969 C 368.007812 268.539062 372.78125 264.164062 377.4375 259.660156 C 382.09375 255.152344 386.628906 250.53125 391.039062 245.785156 C 395.449219 241.039062 399.734375 236.183594 403.886719 231.210938 C 408.042969 226.238281 412.0625 221.164062 415.945312 215.976562 C 419.832031 210.792969 423.578125 205.507812 427.183594 200.125 C 430.789062 194.742188 434.25 189.269531 437.5625 183.703125 C 440.878906 178.136719 444.042969 172.488281 447.058594 166.753906 Z M 511.859375 40.273438 " fill-opacity="1" fill-rule="nonzero"/></g></svg>