<svg xmlns="http://www.w3.org/2000/svg" xmlns:xlink="http://www.w3.org/1999/xlink" width="1080" zoomAndPan="magnify" viewBox="0 0 810 809.999993" height="1080" preserveAspectRatio="xMidYMid meet" version="1.0"><path fill="#ffffff" d="M 351.945312 69.65625 C 322.011719 132.839844 292.855469 196.367188 263.664062 259.882812 C 253.761719 281.449219 243.851562 303.015625 233.933594 324.570312 C 231.214844 330.488281 234.375 337.777344 241.539062 337.820312 L 400.25 338.59375 L 391.753906 327.457031 C 361.910156 410.035156 332.042969 492.617188 302.152344 575.207031 L 277.0625 644.578125 C 275.582031 648.644531 278.382812 653.441406 282.160156 654.957031 C 286.5625 656.71875 290.410156 654.957031 293.144531 651.355469 C 333.589844 598.234375 374.132812 545.1875 414.773438 492.214844 C 451.671875 443.984375 488.378906 395.605469 524.890625 347.082031 C 550.296875 313.253906 575.589844 279.332031 600.765625 245.320312 C 604.878906 239.765625 599.277344 232.117188 593.167969 232.074219 L 451.496094 231.808594 L 459.101562 245.058594 L 536.414062 86.664062 C 539.351562 80.644531 535.804688 73.636719 528.816406 73.460938 C 481.460938 71.972656 434.179688 68.378906 386.859375 66.230469 C 377.765625 65.820312 368.664062 65.351562 359.570312 65.351562 C 348.238281 65.351562 348.222656 82.957031 359.570312 82.957031 C 379.148438 82.957031 398.777344 84.386719 418.324219 85.414062 C 444.496094 86.796875 470.660156 88.292969 496.839844 89.640625 C 507.492188 90.1875 518.15625 90.742188 528.824219 91.074219 L 521.21875 77.828125 L 443.886719 236.164062 C 441.019531 242.046875 444.441406 249.371094 451.484375 249.414062 L 593.160156 249.679688 L 585.5625 236.429688 C 543.800781 292.773438 501.746094 348.902344 459.398438 404.824219 C 423.28125 452.449219 387.003906 499.964844 350.5625 547.367188 C 326.324219 579.0625 302.121094 610.753906 277.953125 642.445312 L 294.042969 649.226562 L 383.644531 401.503906 L 408.734375 332.132812 C 410.714844 326.648438 405.59375 321.015625 400.25 320.988281 L 241.539062 320.210938 L 249.136719 333.460938 C 280.476562 265.324219 311.640625 197.105469 343.335938 129.140625 C 351.210938 112.257812 359.132812 95.390625 367.105469 78.546875 C 369.136719 74.253906 368.300781 69.039062 363.953125 66.496094 C 360.113281 64.261719 353.941406 65.34375 351.902344 69.65625 Z M 351.945312 69.65625 " fill-opacity="1" fill-rule="nonzero"/><path fill="#ffffff" d="M 520.3125 84.5625 C 525.226562 100.179688 531.585938 115.183594 539.398438 129.574219 C 544.785156 139.546875 559.996094 130.664062 554.601562 120.691406 C 547.511719 107.644531 541.742188 94.042969 537.292969 79.878906 C 533.914062 69.101562 516.914062 73.714844 520.3125 84.5625 Z M 520.3125 84.5625 " fill-opacity="1" fill-rule="nonzero"/><path fill="#ffffff" d="M 540.585938 121.914062 C 524.0625 159.621094 505.933594 196.59375 488.988281 234.105469 C 487.023438 238.429688 487.738281 243.570312 492.140625 246.148438 C 495.917969 248.351562 502.21875 247.347656 504.183594 242.988281 C 521.140625 205.476562 539.265625 168.503906 555.789062 130.796875 C 557.691406 126.449219 557.066406 121.351562 552.628906 118.753906 C 548.894531 116.570312 542.503906 117.53125 540.585938 121.914062 Z M 540.585938 121.914062 " fill-opacity="1" fill-rule="nonzero"/><path fill="#ffffff" d="M 585.5625 245.320312 C 592.605469 261.703125 603.757812 275.640625 613.875 290.21875 C 616.585938 294.121094 621.585938 295.914062 625.917969 293.378906 C 629.773438 291.125 631.808594 285.253906 629.078125 281.335938 C 618.964844 266.792969 607.84375 252.847656 600.765625 236.4375 C 598.882812 232.039062 592.472656 231.09375 588.722656 233.289062 C 584.207031 235.929688 583.671875 240.945312 585.5625 245.332031 Z M 585.5625 245.320312 " fill-opacity="1" fill-rule="nonzero"/><path fill="#ffffff" d="M 279.6875 653.898438 C 289.804688 661.925781 299.234375 670.691406 307.980469 680.195312 C 315.726562 688.496094 328.15625 676.03125 320.429688 667.746094 C 311.683594 658.242188 302.253906 649.476562 292.132812 641.453125 C 288.390625 638.527344 283.332031 637.796875 279.6875 641.453125 C 276.640625 644.5 275.910156 650.960938 279.6875 653.898438 Z M 279.6875 653.898438 " fill-opacity="1" fill-rule="nonzero"/><path fill="#ffffff" d="M 234.074219 332.660156 C 239.207031 345.074219 243.230469 357.953125 249.507812 369.875 C 249.890625 370.542969 250.351562 371.152344 250.898438 371.699219 C 251.441406 372.246094 252.046875 372.714844 252.714844 373.101562 C 253.382812 373.488281 254.089844 373.78125 254.835938 373.980469 C 255.582031 374.179688 256.339844 374.277344 257.113281 374.273438 C 299.976562 373.234375 342.886719 374.839844 385.730469 372.910156 C 397.019531 372.410156 397.078125 354.792969 385.730469 355.304688 C 342.886719 357.230469 299.976562 355.628906 257.113281 356.667969 L 264.710938 361.027344 C 259.136719 350.460938 255.609375 339.015625 251.046875 328.011719 C 249.234375 323.609375 245.210938 320.496094 240.21875 321.851562 C 236.074219 322.996094 232.242188 328.257812 234.058594 332.6875 Z M 234.074219 332.660156 " fill-opacity="1" fill-rule="nonzero"/><path fill="#ffffff" d="M 320.429688 680.195312 C 336.273438 660.828125 351.734375 641.1875 367.261719 621.582031 C 390.738281 591.902344 414.183594 562.183594 437.601562 532.421875 C 463.425781 499.644531 489.222656 466.855469 514.992188 434.058594 C 537.625 405.300781 560.289062 376.5625 582.984375 347.839844 C 596.9375 330.230469 610.828125 312.492188 625.097656 295.097656 L 627.6875 291.972656 C 630.734375 288.316406 631.261719 283.089844 627.6875 279.515625 C 624.5625 276.390625 618.304688 275.851562 615.238281 279.515625 C 602.332031 294.972656 589.945312 310.890625 577.4375 326.675781 C 555.480469 354.382812 533.582031 382.132812 511.738281 409.929688 C 486.019531 442.589844 460.3125 475.261719 434.617188 507.949219 C 410.609375 538.464844 386.574219 568.945312 362.515625 599.390625 C 345.730469 620.625 328.949219 641.875 311.914062 662.90625 L 307.980469 667.75 C 304.96875 671.429688 304.378906 676.550781 307.980469 680.195312 C 311.078125 683.304688 317.410156 683.902344 320.429688 680.195312 Z M 320.429688 680.195312 " fill-opacity="1" fill-rule="nonzero"/><path fill="#ffffff" d="M 258.953125 344.984375 L 386.5 345.03125 L 385.328125 336.386719 C 362.636719 339.535156 339.886719 342.175781 317.074219 344.308594 C 297.214844 346.140625 275.082031 349.589844 256.207031 341.21875 L 255.148438 349.265625 C 265.210938 346.5625 275.449219 345.027344 285.859375 344.65625 C 296.269531 344.285156 306.589844 345.085938 316.820312 347.0625 L 317.988281 338.417969 L 288.234375 340.328125 L 273.355469 341.289062 C 269.789062 341.515625 265.933594 341.585938 262.792969 343.4375 C 256.523438 347.082031 257.183594 355.691406 263.171875 359.28125 C 266.691406 361.429688 270.890625 361.359375 274.90625 361.367188 L 363.609375 361.367188 C 368.011719 361.367188 372.667969 361.757812 377.027344 360.929688 C 383.46875 359.695312 389.683594 353.683594 387.246094 346.640625 C 384.410156 338.453125 374.402344 339.84375 367.753906 340.9375 C 356.65625 342.785156 345.683594 345.207031 334.839844 348.207031 C 329.867188 349.574219 331.1875 356.492188 336.011719 356.851562 C 348.699219 357.761719 361.316406 357.175781 373.863281 355.09375 C 379.445312 354.210938 377.078125 345.699219 371.53125 346.605469 C 359.746094 348.492188 347.902344 348.980469 336 348.066406 L 337.171875 356.710938 C 345.84375 354.328125 354.601562 352.265625 363.441406 350.609375 C 367.394531 349.871094 371.648438 348.699219 375.679688 348.78125 C 380.882812 348.886719 378.089844 351.921875 374.542969 352.460938 C 370.449219 353.085938 365.976562 352.59375 361.855469 352.582031 L 280.082031 352.582031 C 278.269531 352.582031 267.378906 353.738281 266.980469 350.988281 C 266.886719 350.339844 287.601562 349.167969 289.976562 349.007812 L 317.980469 347.25 C 322.636719 346.949219 324.308594 339.597656 319.152344 338.601562 C 308.152344 336.441406 297.050781 335.546875 285.851562 335.921875 C 274.648438 336.292969 263.632812 337.917969 252.800781 340.804688 C 249.429688 341.683594 248.167969 347.257812 251.753906 348.839844 C 271.894531 357.777344 294.007812 355.242188 315.320312 353.296875 C 339.503906 351.09375 363.613281 348.304688 387.660156 344.925781 C 392.660156 344.230469 391.324219 336.277344 386.488281 336.277344 L 258.953125 336.183594 C 253.285156 336.183594 253.273438 344.984375 258.953125 344.984375 Z M 258.953125 344.984375 " fill-opacity="1" fill-rule="nonzero"/><path fill="#ffffff" d="M 380.152344 354.0625 L 384.035156 348.25 C 385.742188 345.691406 383.53125 341.210938 380.230469 341.632812 L 329.300781 348.242188 C 323.753906 348.964844 323.683594 357.777344 329.300781 357.046875 L 380.230469 350.433594 L 376.425781 343.804688 L 372.554688 349.617188 C 369.394531 354.34375 377.015625 358.753906 380.152344 354.0625 Z M 380.152344 354.0625 " fill-opacity="1" fill-rule="nonzero"/><path fill="#ffffff" d="M 527.355469 103.921875 C 515.109375 118.707031 504.199219 134.425781 494.628906 151.070312 C 485.058594 167.714844 476.960938 185.050781 470.34375 203.074219 C 468.777344 207.363281 467.308594 211.683594 465.941406 216.03125 C 464.726562 219.863281 462.09375 225.082031 463.722656 229.105469 C 463.894531 229.488281 464.097656 229.855469 464.335938 230.203125 C 464.570312 230.550781 464.832031 230.875 465.125 231.179688 C 465.417969 231.480469 465.730469 231.757812 466.070312 232.003906 C 466.410156 232.253906 466.769531 232.46875 467.144531 232.65625 C 467.519531 232.84375 467.910156 232.996094 468.3125 233.117188 C 468.714844 233.238281 469.125 233.320312 469.542969 233.371094 C 469.960938 233.417969 470.378906 233.433594 470.796875 233.410156 C 471.21875 233.386719 471.632812 233.328125 472.042969 233.234375 C 475.765625 232.496094 477.886719 229.476562 479.199219 226.191406 C 482.625 217.503906 485.433594 208.585938 489.128906 200.027344 C 492.945312 191.1875 497.148438 182.535156 501.746094 174.066406 C 512.222656 154.722656 524.546875 136.636719 538.71875 119.808594 L 534.433594 120.945312 C 537.875 122.167969 529.703125 131.308594 528.878906 132.390625 C 525.609375 136.667969 522.507812 141.070312 519.570312 145.597656 C 513.863281 154.425781 508.660156 163.546875 503.964844 172.957031 C 494.402344 191.9375 486.515625 211.691406 478.660156 231.449219 L 487.308594 232.617188 C 489.507812 211.921875 498.960938 193.003906 510.511719 175.957031 C 516.101562 167.71875 522.425781 160.113281 528.488281 152.191406 C 534.554688 144.265625 539.441406 136.027344 540.683594 125.972656 C 541.21875 121.660156 534.292969 119.953125 532.476562 123.753906 L 482.929688 227.371094 C 480.519531 232.414062 487.632812 236.773438 490.527344 231.816406 L 504.871094 207.265625 C 509.273438 199.710938 515.242188 191.902344 518.074219 183.582031 C 520.3125 176.996094 518.074219 169.789062 511.710938 166.574219 C 505.34375 163.359375 498.109375 166.40625 494.738281 172.242188 C 491.847656 177.234375 499.09375 181.214844 502.335938 176.644531 L 509.378906 166.804688 C 512.679688 162.179688 505.046875 157.78125 501.78125 162.359375 L 494.738281 172.207031 L 502.335938 176.609375 C 505.328125 171.425781 511.324219 175.097656 509.808594 180.449219 C 508.292969 185.800781 504.015625 191.214844 501.179688 196.058594 L 482.929688 227.371094 L 490.527344 231.816406 C 507.019531 197.253906 523.511719 162.699219 540.003906 128.148438 L 531.800781 125.929688 C 530.558594 135.980469 523.570312 144.265625 517.457031 151.890625 C 511.03125 159.785156 505.050781 168 499.507812 176.539062 C 488.601562 193.609375 480.582031 212.34375 478.378906 232.601562 C 477.808594 237.933594 485.351562 237.980469 487.023438 233.769531 C 496.121094 210.933594 505.285156 188.039062 517.1875 166.488281 C 523.03125 155.753906 529.683594 145.546875 537.144531 135.867188 C 540.171875 131.96875 543.851562 127.945312 543.90625 122.664062 C 543.921875 122.101562 543.894531 121.542969 543.824219 120.984375 C 543.75 120.429688 543.636719 119.882812 543.476562 119.34375 C 543.3125 118.804688 543.113281 118.285156 542.867188 117.78125 C 542.625 117.273438 542.339844 116.792969 542.019531 116.332031 C 541.695312 115.871094 541.339844 115.441406 540.949219 115.039062 C 540.554688 114.636719 540.136719 114.269531 539.683594 113.933594 C 539.234375 113.601562 538.757812 113.304688 538.261719 113.046875 C 537.761719 112.789062 537.246094 112.574219 536.710938 112.398438 C 535.949219 112.171875 535.183594 112.160156 534.414062 112.363281 C 533.648438 112.566406 532.984375 112.953125 532.433594 113.523438 C 521.550781 126.421875 511.707031 140.066406 502.894531 154.457031 C 494.082031 168.847656 486.40625 183.820312 479.867188 199.375 C 478.300781 203.109375 476.796875 206.871094 475.359375 210.664062 C 473.890625 214.578125 471.523438 219.097656 470.90625 223.234375 C 470.808594 223.886719 468.609375 226.339844 472.171875 225.628906 C 472.519531 224.667969 472.8125 223.695312 473.054688 222.707031 C 473.644531 220.769531 474.261719 218.832031 474.886719 216.894531 C 476.210938 212.785156 477.625 208.714844 479.121094 204.675781 C 485.074219 188.574219 492.265625 173.050781 500.695312 158.097656 C 510.242188 141.132812 521.21875 125.152344 533.621094 110.152344 C 537.207031 105.8125 530.980469 99.589844 527.398438 103.921875 Z M 527.355469 103.921875 " fill-opacity="1" fill-rule="nonzero"/><path fill="#ffffff" d="M 526.640625 110.222656 C 520.765625 122.652344 513.234375 133.980469 504.042969 144.203125 C 500.730469 147.867188 504.921875 153.617188 509.367188 151.117188 L 521.976562 144.074219 L 515.503906 139.097656 C 504.507812 172.550781 469.269531 195.898438 471.046875 233.824219 C 471.3125 239.46875 480.113281 239.492188 479.851562 233.824219 C 479.015625 215.863281 488.277344 199.976562 498.1875 185.714844 C 507.996094 171.628906 518.558594 157.964844 523.992188 141.441406 C 525.230469 137.664062 520.742188 134.679688 517.53125 136.464844 L 504.929688 143.507812 L 510.265625 150.421875 C 520.003906 139.671875 527.992188 127.75 534.238281 114.660156 C 536.660156 109.570312 529.070312 105.101562 526.640625 110.257812 Z M 526.640625 110.222656 " fill-opacity="1" fill-rule="nonzero"/><path fill="#ffffff" d="M 295.382812 646.910156 L 314.152344 660.828125 L 611.945312 285.738281 L 593.160156 256.414062 Z M 295.382812 646.910156 " fill-opacity="1" fill-rule="nonzero"/></svg>