<svg xmlns="http://www.w3.org/2000/svg" xmlns:xlink="http://www.w3.org/1999/xlink" width="1080" zoomAndPan="magnify" viewBox="0 0 810 809.999993" height="1080" preserveAspectRatio="xMidYMid meet" version="1.0"><path fill="#ffffff" d="M 427.683594 556.492188 C 427.683594 556.492188 381.714844 556.492188 381.714844 556.492188 C 381.714844 556.492188 389.378906 389.121094 389.378906 389.121094 C 389.378906 389.121094 381.714844 221.160156 381.714844 221.160156 C 381.714844 221.160156 427.683594 221.160156 427.683594 221.160156 C 427.683594 221.160156 421.792969 389.121094 421.792969 389.121094 C 421.792969 389.121094 427.683594 556.492188 427.683594 556.492188 Z M 427.683594 556.492188 " fill-opacity="1" fill-rule="nonzero"/><path fill="#ffffff" d="M 237.328125 399.140625 C 237.328125 399.140625 237.328125 353.171875 237.328125 353.171875 C 237.328125 353.171875 398.808594 369.082031 398.808594 369.082031 C 398.808594 369.082031 572.660156 353.171875 572.660156 353.171875 C 572.660156 353.171875 572.660156 399.140625 572.660156 399.140625 C 572.660156 399.140625 405.289062 392.066406 405.289062 392.066406 C 405.289062 392.066406 237.328125 399.140625 237.328125 399.140625 Z M 237.328125 399.140625 " fill-opacity="1" fill-rule="nonzero"/><path fill="#ffffff" d="M 296.589844 521.070312 C 296.589844 521.070312 264.085938 488.566406 264.085938 488.566406 C 264.085938 488.566406 327.496094 435.089844 327.496094 435.089844 C 327.496094 435.089844 462.457031 296.003906 462.457031 296.003906 C 462.457031 296.003906 501.199219 251.449219 501.199219 251.449219 C 501.199219 251.449219 533.703125 283.957031 533.703125 283.957031 C 533.703125 283.957031 497.816406 311.917969 497.816406 311.917969 C 497.816406 311.917969 359.320312 444.519531 359.320312 444.519531 C 359.320312 444.519531 296.589844 521.070312 296.589844 521.070312 Z M 296.589844 521.070312 " fill-opacity="1" fill-rule="nonzero"/><path fill="#ffffff" d="M 269.5 278.953125 C 269.5 278.953125 302.003906 246.449219 302.003906 246.449219 C 302.003906 246.449219 409.414062 367.90625 409.414062 367.90625 C 409.414062 367.90625 539.121094 483.566406 539.121094 483.566406 C 539.121094 483.566406 506.617188 516.070312 506.617188 516.070312 C 506.617188 516.070312 391.734375 386.175781 391.734375 386.175781 C 391.734375 386.175781 269.5 278.953125 269.5 278.953125 Z M 269.5 278.953125 " fill-opacity="1" fill-rule="nonzero"/></svg>