<svg xmlns="http://www.w3.org/2000/svg" xmlns:xlink="http://www.w3.org/1999/xlink" width="1080" zoomAndPan="magnify" viewBox="0 0 810 809.999993" height="1080" preserveAspectRatio="xMidYMid meet" version="1.0"><defs><clipPath id="bd2477bbc9"><path d="M 160 371 L 674.25 371 L 674.25 476.4375 L 160 476.4375 Z M 160 371 " clip-rule="nonzero"/></clipPath><clipPath id="f8478d2499"><path d="M 81.003906 291.9375 L 160.140625 291.9375 L 160.140625 371.074219 L 81.003906 371.074219 Z M 81.003906 291.9375 " clip-rule="nonzero"/></clipPath></defs><g clip-path="url(#bd2477bbc9)"><path fill="#f0927e" d="M 212.898438 371.074219 L 621.769531 371.074219 C 623.5 371.074219 625.222656 371.160156 626.941406 371.328125 C 628.660156 371.496094 630.367188 371.75 632.0625 372.085938 C 633.757812 372.425781 635.433594 372.84375 637.085938 373.347656 C 638.738281 373.847656 640.363281 374.429688 641.960938 375.089844 C 643.554688 375.75 645.117188 376.488281 646.640625 377.304688 C 648.164062 378.117188 649.644531 379.003906 651.082031 379.964844 C 652.519531 380.925781 653.902344 381.953125 655.238281 383.050781 C 656.574219 384.144531 657.855469 385.304688 659.074219 386.527344 C 660.296875 387.75 661.457031 389.027344 662.554688 390.363281 C 663.648438 391.699219 664.675781 393.085938 665.636719 394.519531 C 666.597656 395.957031 667.484375 397.4375 668.296875 398.960938 C 669.113281 400.484375 669.851562 402.046875 670.511719 403.640625 C 671.171875 405.238281 671.753906 406.863281 672.257812 408.515625 C 672.757812 410.171875 673.175781 411.84375 673.515625 413.539062 C 673.851562 415.234375 674.105469 416.941406 674.273438 418.660156 C 674.445312 420.378906 674.527344 422.105469 674.527344 423.832031 C 674.527344 425.558594 674.445312 427.285156 674.273438 429.003906 C 674.105469 430.722656 673.851562 432.429688 673.515625 434.125 C 673.175781 435.820312 672.757812 437.492188 672.257812 439.148438 C 671.753906 440.800781 671.171875 442.425781 670.511719 444.019531 C 669.851562 445.617188 669.113281 447.179688 668.296875 448.703125 C 667.484375 450.226562 666.597656 451.707031 665.636719 453.140625 C 664.675781 454.578125 663.648438 455.964844 662.554688 457.300781 C 661.457031 458.636719 660.296875 459.914062 659.074219 461.136719 C 657.855469 462.359375 656.574219 463.519531 655.238281 464.613281 C 653.902344 465.710938 652.519531 466.738281 651.082031 467.699219 C 649.644531 468.660156 648.164062 469.546875 646.640625 470.359375 C 645.117188 471.175781 643.554688 471.914062 641.960938 472.574219 C 640.363281 473.234375 638.738281 473.816406 637.085938 474.316406 C 635.433594 474.820312 633.757812 475.238281 632.0625 475.574219 C 630.367188 475.914062 628.660156 476.167969 626.941406 476.335938 C 625.222656 476.503906 623.5 476.589844 621.769531 476.589844 L 212.898438 476.589844 C 211.167969 476.589844 209.445312 476.503906 207.726562 476.335938 C 206.007812 476.167969 204.300781 475.914062 202.605469 475.574219 C 200.910156 475.238281 199.234375 474.820312 197.582031 474.316406 C 195.929688 473.816406 194.304688 473.234375 192.707031 472.574219 C 191.113281 471.914062 189.550781 471.175781 188.027344 470.359375 C 186.503906 469.546875 185.023438 468.660156 183.585938 467.699219 C 182.148438 466.738281 180.765625 465.710938 179.429688 464.613281 C 178.09375 463.519531 176.8125 462.359375 175.59375 461.136719 C 174.371094 459.914062 173.210938 458.636719 172.113281 457.300781 C 171.019531 455.964844 169.992188 454.578125 169.03125 453.140625 C 168.070312 451.707031 167.183594 450.226562 166.371094 448.703125 C 165.554688 447.179688 164.816406 445.617188 164.15625 444.019531 C 163.496094 442.425781 162.914062 440.800781 162.410156 439.148438 C 161.910156 437.492188 161.492188 435.820312 161.152344 434.125 C 160.816406 432.429688 160.5625 430.722656 160.394531 429.003906 C 160.222656 427.285156 160.140625 425.558594 160.140625 423.832031 C 160.140625 422.105469 160.222656 420.378906 160.394531 418.660156 C 160.5625 416.941406 160.816406 415.234375 161.152344 413.539062 C 161.492188 411.84375 161.910156 410.171875 162.410156 408.515625 C 162.914062 406.863281 163.496094 405.238281 164.15625 403.640625 C 164.816406 402.046875 165.554688 400.484375 166.371094 398.960938 C 167.183594 397.4375 168.070312 395.957031 169.03125 394.519531 C 169.992188 393.085938 171.019531 391.699219 172.113281 390.363281 C 173.210938 389.027344 174.371094 387.75 175.59375 386.527344 C 176.8125 385.304688 178.09375 384.144531 179.429688 383.050781 C 180.765625 381.953125 182.148438 380.925781 183.585938 379.964844 C 185.023438 379.003906 186.503906 378.117188 188.027344 377.304688 C 189.550781 376.488281 191.113281 375.75 192.707031 375.089844 C 194.304688 374.429688 195.929688 373.847656 197.582031 373.347656 C 199.234375 372.84375 200.910156 372.425781 202.605469 372.085938 C 204.300781 371.75 206.007812 371.496094 207.726562 371.328125 C 209.445312 371.160156 211.167969 371.074219 212.898438 371.074219 Z M 212.898438 371.074219 " fill-opacity="1" fill-rule="nonzero"/></g><path fill="#000000" d="M 233.28125 441.945312 C 229.9375 441.945312 227 441.207031 224.46875 439.730469 C 221.9375 438.253906 219.96875 436.089844 218.5625 433.242188 C 217.1875 430.390625 216.503906 426.960938 216.503906 422.953125 C 216.503906 418.941406 217.1875 415.53125 218.5625 412.71875 C 219.96875 409.867188 221.9375 407.707031 224.46875 406.226562 C 227 404.75 229.9375 404.011719 233.28125 404.011719 C 237.324219 404.011719 240.667969 405.03125 243.304688 407.074219 C 245.976562 409.078125 247.578125 412.03125 248.105469 415.9375 L 242.722656 415.9375 C 242.125 413.578125 241 411.804688 239.347656 410.605469 C 237.730469 409.375 235.707031 408.761719 233.28125 408.761719 C 229.761719 408.761719 227.019531 410.007812 225.050781 412.507812 C 223.082031 415.003906 222.09375 418.484375 222.09375 422.953125 C 222.09375 427.417969 223.0625 430.917969 224.996094 433.453125 C 226.964844 435.949219 229.726562 437.195312 233.28125 437.195312 C 235.707031 437.195312 237.730469 436.597656 239.347656 435.402344 C 241 434.171875 242.125 432.359375 242.722656 429.96875 L 248.105469 429.96875 C 247.578125 433.910156 245.976562 436.898438 243.304688 438.9375 C 240.667969 440.941406 237.324219 441.945312 233.28125 441.945312 Z M 264.410156 441.945312 C 262.054688 441.945312 259.855469 441.433594 257.816406 440.414062 C 255.773438 439.359375 254.140625 437.761719 252.90625 435.613281 C 251.675781 433.46875 251.0625 430.832031 251.0625 427.699219 C 251.0625 424.570312 251.675781 421.933594 252.90625 419.785156 C 254.140625 417.640625 255.773438 416.058594 257.816406 415.039062 C 259.855469 413.984375 262.054688 413.457031 264.410156 413.457031 C 266.800781 413.457031 269 413.984375 271.003906 415.039062 C 273.042969 416.058594 274.679688 417.640625 275.910156 419.785156 C 277.175781 421.933594 277.808594 424.570312 277.808594 427.699219 C 277.808594 430.832031 277.175781 433.46875 275.910156 435.613281 C 274.679688 437.761719 273.042969 439.359375 271.003906 440.414062 C 269 441.433594 266.800781 441.945312 264.410156 441.945312 Z M 264.410156 437.460938 C 266.800781 437.460938 268.789062 436.632812 270.371094 434.980469 C 271.953125 433.328125 272.746094 430.902344 272.746094 427.699219 C 272.746094 424.5 271.953125 422.074219 270.371094 420.421875 C 268.789062 418.765625 266.800781 417.941406 264.410156 417.941406 C 262.019531 417.941406 260.03125 418.765625 258.449219 420.421875 C 256.898438 422.074219 256.125 424.5 256.125 427.699219 C 256.125 430.902344 256.898438 433.328125 258.449219 434.980469 C 260.03125 436.632812 262.019531 437.460938 264.410156 437.460938 Z M 297.136719 413.457031 C 300.019531 413.457031 302.359375 414.351562 304.152344 416.148438 C 305.949219 417.90625 306.84375 420.632812 306.84375 424.324219 L 306.84375 441.417969 L 301.515625 441.417969 L 301.515625 425.539062 C 301.515625 423.074219 300.96875 421.195312 299.878906 419.890625 C 298.824219 418.589844 297.226562 417.941406 295.078125 417.941406 C 292.863281 417.941406 291.085938 418.609375 289.75 419.945312 C 288.414062 421.28125 287.746094 423.144531 287.746094 425.539062 L 287.746094 441.417969 L 282.417969 441.417969 L 282.417969 413.984375 L 287.746094 413.984375 L 287.746094 419.46875 L 287.902344 419.46875 C 288.078125 418.660156 288.519531 417.800781 289.222656 416.886719 C 289.960938 415.9375 291 415.125 292.335938 414.457031 C 293.671875 413.789062 295.273438 413.457031 297.136719 413.457031 Z M 326.019531 437.460938 L 326.019531 441.628906 C 325.246094 441.734375 324.101562 441.785156 322.589844 441.785156 C 320.195312 441.785156 318.316406 441.207031 316.945312 440.046875 C 315.570312 438.886719 314.886719 437.019531 314.886719 434.453125 L 314.886719 418.152344 L 310.402344 418.152344 L 310.402344 413.984375 L 314.886719 413.984375 L 314.886719 407.074219 L 320.214844 407.074219 L 320.214844 413.984375 L 325.648438 413.984375 L 325.648438 418.152344 L 320.214844 418.152344 L 320.214844 433.558594 C 320.214844 434.929688 320.496094 435.929688 321.058594 436.5625 C 321.65625 437.160156 322.625 437.460938 323.960938 437.460938 Z M 354.34375 427.277344 C 354.34375 428.015625 354.289062 428.683594 354.183594 429.285156 L 333.875 429.285156 C 334.226562 435.015625 337.019531 437.882812 342.261719 437.882812 C 344.019531 437.882812 345.480469 437.53125 346.640625 436.828125 C 347.800781 436.125 348.664062 435 349.226562 433.453125 L 353.972656 433.453125 C 353.199219 436.371094 351.757812 438.535156 349.648438 439.941406 C 347.574219 441.347656 345.058594 442.050781 342.105469 442.050781 C 338.164062 442.050781 334.945312 440.855469 332.449219 438.464844 C 329.988281 436.070312 328.753906 432.519531 328.753906 427.804688 C 328.753906 424.570312 329.335938 421.878906 330.496094 419.734375 C 331.65625 417.589844 333.222656 416.007812 335.191406 414.984375 C 337.160156 413.964844 339.378906 413.457031 341.839844 413.457031 C 345.566406 413.457031 348.574219 414.617188 350.859375 416.9375 C 353.183594 419.222656 354.34375 422.671875 354.34375 427.277344 Z M 349.277344 425.484375 C 349.207031 423.023438 348.523438 421.105469 347.222656 419.734375 C 345.953125 418.328125 344.144531 417.625 341.785156 417.625 C 339.535156 417.625 337.707031 418.292969 336.300781 419.628906 C 334.929688 420.929688 334.121094 422.882812 333.875 425.484375 Z M 373.644531 413.457031 C 376.53125 413.457031 378.867188 414.351562 380.664062 416.148438 C 382.457031 417.90625 383.355469 420.632812 383.355469 424.324219 L 383.355469 441.417969 L 378.023438 441.417969 L 378.023438 425.539062 C 378.023438 423.074219 377.480469 421.195312 376.390625 419.890625 C 375.335938 418.589844 373.734375 417.941406 371.589844 417.941406 C 369.371094 417.941406 367.597656 418.609375 366.261719 419.945312 C 364.921875 421.28125 364.253906 423.144531 364.253906 425.539062 L 364.253906 441.417969 L 358.925781 441.417969 L 358.925781 413.984375 L 364.253906 413.984375 L 364.253906 419.46875 L 364.414062 419.46875 C 364.589844 418.660156 365.027344 417.800781 365.730469 416.886719 C 366.472656 415.9375 367.507812 415.125 368.84375 414.457031 C 370.183594 413.789062 371.78125 413.457031 373.644531 413.457031 Z M 402.527344 437.460938 L 402.527344 441.628906 C 401.753906 441.734375 400.609375 441.785156 399.097656 441.785156 C 396.707031 441.785156 394.824219 441.207031 393.453125 440.046875 C 392.082031 438.886719 391.394531 437.019531 391.394531 434.453125 L 391.394531 418.152344 L 386.910156 418.152344 L 386.910156 413.984375 L 391.394531 413.984375 L 391.394531 407.074219 L 396.722656 407.074219 L 396.722656 413.984375 L 402.15625 413.984375 L 402.15625 418.152344 L 396.722656 418.152344 L 396.722656 433.558594 C 396.722656 434.929688 397.003906 435.929688 397.566406 436.5625 C 398.164062 437.160156 399.132812 437.460938 400.46875 437.460938 Z M 434.984375 441.945312 C 431.644531 441.945312 428.707031 441.207031 426.175781 439.730469 C 423.644531 438.253906 421.671875 436.089844 420.265625 433.242188 C 418.894531 430.390625 418.207031 426.960938 418.207031 422.953125 C 418.207031 418.941406 418.894531 415.53125 420.265625 412.71875 C 421.671875 409.867188 423.644531 407.707031 426.175781 406.226562 C 428.707031 404.75 431.644531 404.011719 434.984375 404.011719 C 439.03125 404.011719 442.371094 405.03125 445.011719 407.074219 C 447.683594 409.078125 449.28125 412.03125 449.8125 415.9375 L 444.429688 415.9375 C 443.832031 413.578125 442.707031 411.804688 441.054688 410.605469 C 439.433594 409.375 437.414062 408.761719 434.984375 408.761719 C 431.46875 408.761719 428.726562 410.007812 426.753906 412.507812 C 424.785156 415.003906 423.800781 418.484375 423.800781 422.953125 C 423.800781 427.417969 424.769531 430.917969 426.703125 433.453125 C 428.671875 435.949219 431.433594 437.195312 434.984375 437.195312 C 437.414062 437.195312 439.433594 436.597656 441.054688 435.402344 C 442.707031 434.171875 443.832031 432.359375 444.429688 429.96875 L 449.8125 429.96875 C 449.28125 433.910156 447.683594 436.898438 445.011719 438.9375 C 442.371094 440.941406 439.03125 441.945312 434.984375 441.945312 Z M 468.21875 413.773438 C 469.0625 413.773438 469.75 413.859375 470.277344 414.035156 L 470.277344 418.519531 C 469.609375 418.414062 468.941406 418.363281 468.273438 418.363281 C 465.632812 418.363281 463.542969 419.171875 461.992188 420.789062 C 460.445312 422.40625 459.671875 424.710938 459.671875 427.699219 L 459.671875 441.417969 L 454.34375 441.417969 L 454.34375 413.984375 L 459.671875 413.984375 L 459.671875 420.316406 L 459.777344 420.316406 C 460.269531 418.484375 461.21875 416.9375 462.628906 415.671875 C 464.035156 414.40625 465.898438 413.773438 468.21875 413.773438 Z M 497.828125 427.277344 C 497.828125 428.015625 497.777344 428.683594 497.671875 429.285156 L 477.359375 429.285156 C 477.710938 435.015625 480.507812 437.882812 485.75 437.882812 C 487.507812 437.882812 488.964844 437.53125 490.128906 436.828125 C 491.289062 436.125 492.148438 435 492.710938 433.453125 L 497.460938 433.453125 C 496.6875 436.371094 495.246094 438.535156 493.132812 439.941406 C 491.058594 441.347656 488.542969 442.050781 485.589844 442.050781 C 481.652344 442.050781 478.433594 440.855469 475.9375 438.464844 C 473.472656 436.070312 472.242188 432.519531 472.242188 427.804688 C 472.242188 424.570312 472.824219 421.878906 473.984375 419.734375 C 475.144531 417.589844 476.710938 416.007812 478.679688 414.984375 C 480.648438 413.964844 482.863281 413.457031 485.328125 413.457031 C 489.054688 413.457031 492.0625 414.617188 494.347656 416.9375 C 496.667969 419.222656 497.828125 422.671875 497.828125 427.277344 Z M 492.765625 425.484375 C 492.695312 423.023438 492.007812 421.105469 490.707031 419.734375 C 489.441406 418.328125 487.628906 417.625 485.273438 417.625 C 483.023438 417.625 481.195312 418.292969 479.785156 419.628906 C 478.414062 420.929688 477.605469 422.882812 477.359375 425.484375 Z M 513.96875 413.457031 C 517.800781 413.457031 520.613281 414.230469 522.410156 415.777344 C 524.238281 417.289062 525.152344 419.699219 525.152344 423.003906 L 525.152344 441.417969 L 520.191406 441.417969 L 520.191406 437.144531 L 519.980469 437.144531 C 519.453125 438.199219 518.433594 439.273438 516.921875 440.363281 C 515.410156 441.417969 513.230469 441.945312 510.378906 441.945312 C 507.601562 441.945312 505.351562 441.3125 503.625 440.046875 C 501.9375 438.78125 501.09375 436.863281 501.09375 434.296875 C 501.09375 431.867188 501.902344 430.074219 503.519531 428.914062 C 505.140625 427.71875 507.425781 426.925781 510.378906 426.539062 L 516.394531 425.800781 C 517.625 425.625 518.503906 425.414062 519.03125 425.167969 C 519.558594 424.886719 519.824219 424.554688 519.824219 424.164062 L 519.824219 423.164062 C 519.824219 421.054688 519.3125 419.574219 518.292969 418.730469 C 517.273438 417.886719 515.761719 417.464844 513.757812 417.464844 C 511.820312 417.464844 510.34375 417.835938 509.324219 418.574219 C 508.304688 419.277344 507.792969 420.472656 507.792969 422.160156 L 507.792969 422.742188 L 502.730469 422.742188 L 502.730469 421.6875 C 502.730469 418.941406 503.679688 416.886719 505.578125 415.511719 C 507.476562 414.140625 510.273438 413.457031 513.96875 413.457031 Z M 519.824219 428.386719 C 519.4375 428.914062 518.398438 429.285156 516.710938 429.496094 L 511.644531 430.179688 C 509.710938 430.425781 508.359375 430.847656 507.582031 431.445312 C 506.808594 432.042969 506.421875 432.886719 506.421875 433.980469 C 506.421875 435.210938 506.84375 436.160156 507.6875 436.828125 C 508.570312 437.460938 509.78125 437.777344 511.328125 437.777344 C 513.160156 437.777344 514.707031 437.40625 515.972656 436.667969 C 517.273438 435.894531 518.242188 435 518.875 433.980469 C 519.507812 432.921875 519.824219 432.007812 519.824219 431.234375 Z M 544.058594 437.460938 L 544.058594 441.628906 C 543.285156 441.734375 542.140625 441.785156 540.628906 441.785156 C 538.238281 441.785156 536.355469 441.207031 534.984375 440.046875 C 533.613281 438.886719 532.925781 437.019531 532.925781 434.453125 L 532.925781 418.152344 L 528.441406 418.152344 L 528.441406 413.984375 L 532.925781 413.984375 L 532.925781 407.074219 L 538.253906 407.074219 L 538.253906 413.984375 L 543.6875 413.984375 L 543.6875 418.152344 L 538.253906 418.152344 L 538.253906 433.558594 C 538.253906 434.929688 538.535156 435.929688 539.097656 436.5625 C 539.695312 437.160156 540.664062 437.460938 542 437.460938 Z M 560.140625 441.945312 C 557.785156 441.945312 555.585938 441.433594 553.546875 440.414062 C 551.503906 439.359375 549.871094 437.761719 548.640625 435.613281 C 547.410156 433.46875 546.792969 430.832031 546.792969 427.699219 C 546.792969 424.570312 547.410156 421.933594 548.640625 419.785156 C 549.871094 417.640625 551.503906 416.058594 553.546875 415.039062 C 555.585938 413.984375 557.785156 413.457031 560.140625 413.457031 C 562.53125 413.457031 564.730469 413.984375 566.734375 415.039062 C 568.773438 416.058594 570.410156 417.640625 571.640625 419.785156 C 572.90625 421.933594 573.542969 424.570312 573.542969 427.699219 C 573.542969 430.832031 572.90625 433.46875 571.640625 435.613281 C 570.410156 437.761719 568.773438 439.359375 566.734375 440.414062 C 564.730469 441.433594 562.53125 441.945312 560.140625 441.945312 Z M 560.140625 437.460938 C 562.53125 437.460938 564.519531 436.632812 566.101562 434.980469 C 567.683594 433.328125 568.476562 430.902344 568.476562 427.699219 C 568.476562 424.5 567.683594 422.074219 566.101562 420.421875 C 564.519531 418.765625 562.53125 417.941406 560.140625 417.941406 C 557.75 417.941406 555.761719 418.765625 554.179688 420.421875 C 552.632812 422.074219 551.859375 424.5 551.859375 427.699219 C 551.859375 430.902344 552.632812 433.328125 554.179688 434.980469 C 555.761719 436.632812 557.75 437.460938 560.140625 437.460938 Z M 592.023438 413.773438 C 592.867188 413.773438 593.554688 413.859375 594.082031 414.035156 L 594.082031 418.519531 C 593.414062 418.414062 592.746094 418.363281 592.078125 418.363281 C 589.4375 418.363281 587.347656 419.171875 585.796875 420.789062 C 584.25 422.40625 583.476562 424.710938 583.476562 427.699219 L 583.476562 441.417969 L 578.148438 441.417969 L 578.148438 413.984375 L 583.476562 413.984375 L 583.476562 420.316406 L 583.582031 420.316406 C 584.074219 418.484375 585.023438 416.9375 586.429688 415.671875 C 587.839844 414.40625 589.703125 413.773438 592.023438 413.773438 Z M 607.4375 441.945312 C 604.027344 441.945312 601.28125 441.207031 599.207031 439.730469 C 597.132812 438.253906 596.058594 436.089844 595.988281 433.242188 L 600.789062 433.242188 C 601 434.824219 601.703125 436 602.902344 436.773438 C 604.132812 437.511719 605.660156 437.882812 607.492188 437.882812 C 609.285156 437.882812 610.726562 437.53125 611.816406 436.828125 C 612.941406 436.125 613.503906 435.070312 613.503906 433.664062 C 613.503906 432.605469 613.171875 431.816406 612.503906 431.289062 C 611.835938 430.761719 610.796875 430.320312 609.390625 429.96875 L 604.273438 428.808594 C 599.3125 427.648438 596.832031 425.132812 596.832031 421.265625 C 596.832031 418.800781 597.785156 416.886719 599.683594 415.511719 C 601.582031 414.140625 604.148438 413.457031 607.386719 413.457031 C 610.621094 413.457031 613.171875 414.195312 615.035156 415.671875 C 616.898438 417.148438 617.902344 419.277344 618.042969 422.054688 L 613.558594 422.054688 C 613.3125 420.4375 612.660156 419.277344 611.605469 418.574219 C 610.585938 417.871094 609.214844 417.519531 607.492188 417.519531 C 605.765625 417.519531 604.414062 417.835938 603.429688 418.46875 C 602.445312 419.101562 601.949219 420 601.949219 421.160156 C 601.949219 423.023438 603.304688 424.253906 606.011719 424.851562 L 611.183594 426.011719 C 613.679688 426.609375 615.597656 427.472656 616.933594 428.597656 C 618.269531 429.722656 618.9375 431.375 618.9375 433.558594 C 618.9375 436.40625 617.847656 438.515625 615.667969 439.886719 C 613.488281 441.257812 610.742188 441.945312 607.4375 441.945312 Z M 607.4375 441.945312 " fill-opacity="1" fill-rule="nonzero"/><g clip-path="url(#f8478d2499)"><path fill="#f0927e" d="M 158.746094 324.5 L 84.246094 292.128906 C 83.371094 291.75 82.355469 291.941406 81.683594 292.617188 C 81.007812 293.289062 80.816406 294.304688 81.195312 295.179688 L 113.566406 369.679688 C 113.9375 370.53125 114.773438 371.074219 115.691406 371.074219 C 115.738281 371.074219 115.78125 371.074219 115.824219 371.070312 C 116.792969 371.015625 117.625 370.363281 117.910156 369.433594 L 124.851562 346.738281 C 126.457031 341.484375 130.550781 337.390625 135.800781 335.785156 L 158.5 328.84375 C 159.429688 328.5625 160.082031 327.726562 160.136719 326.757812 C 160.191406 325.789062 159.636719 324.886719 158.746094 324.5 Z M 158.746094 324.5 " fill-opacity="1" fill-rule="nonzero"/></g></svg>